<?xml version="1.0" encoding="UTF-8"?>
<svg id="Camada_1" data-name="Camada 1" xmlns="http://www.w3.org/2000/svg" viewBox="0 0 512 512">
  <defs>
    <style>
      .cls-1 {
        fill: none;
      }

      .cls-2 {
        fill: #fff;
      }

      .cls-3, .cls-4, .cls-5 {
        fill: #4a6fa5;
      }

      .cls-4 {
        opacity: .4;
      }

      .cls-4, .cls-5 {
        isolation: isolate;
      }

      .cls-5 {
        opacity: .6;
      }

      .cls-6 {
        fill: #2c4a7a;
      }

      .cls-7 {
        fill: #f5a623;
      }
    </style>
  </defs>
  <circle class="cls-3" cx="256" cy="256" r="160"/>
  <circle class="cls-3" cx="256" cy="256" r="112"/>
  <g>
    <rect class="cls-2" x="176" y="201" width="160" height="80" rx="20" ry="20"/>
    <g>
      <path class="cls-5" d="M199.12,219.75h113.75c1.73,0,3.12,1.4,3.12,3.12h0c0,1.73-1.4,3.12-3.12,3.12h-113.75c-1.73,0-3.12-1.4-3.12-3.12h0c0-1.73,1.4-3.12,3.12-3.12Z"/>
      <path class="cls-7" d="M199.75,235.38h122.5c2.07,0,3.75,1.68,3.75,3.75h0c0,2.07-1.68,3.75-3.75,3.75h-122.5c-2.07,0-3.75-1.68-3.75-3.75h0c0-2.07,1.68-3.75,3.75-3.75Z"/>
      <path class="cls-5" d="M199.12,251h103.75c1.73,0,3.12,1.4,3.12,3.12h0c0,1.73-1.4,3.12-3.12,3.12h-103.75c-1.73,0-3.12-1.4-3.12-3.12h0c0-1.73,1.4-3.12,3.12-3.12Z"/>
      <path class="cls-4" d="M199.12,266.62h93.75c1.73,0,3.12,1.4,3.12,3.12h0c0,1.73-1.4,3.12-3.12,3.12h-93.75c-1.73,0-3.12-1.4-3.12-3.12h0c0-1.73,1.4-3.12,3.12-3.12Z"/>
    </g>
    <rect class="cls-6" x="243.5" y="281" width="25" height="15"/>
    <path class="cls-6" d="M236,296h40c2.76,0,5,2.24,5,5h0c0,2.76-2.24,5-5,5h-40c-2.76,0-5-2.24-5-5h0c0-2.76,2.24-5,5-5Z"/>
  </g>
  <rect class="cls-1" width="512" height="512"/>
</svg>